<?xml version="1.0" encoding="UTF-8"?>
<svg id="_レイヤー_1" data-name="レイヤー 1" xmlns="http://www.w3.org/2000/svg" viewBox="0 0 239.84 893.7">
  <path d="M163.77,163.27h-87.7c-22.28,0-41.77-14.99-47.49-36.52L.58,21.4C-2.29,10.59,5.85,0,17.03,0h205.77c11.18,0,19.33,10.59,16.45,21.4l-28,105.36c-5.72,21.53-25.21,36.52-47.49,36.52Z" fill="#3f4fff"/>
  <path d="M90.27,881.95l-70.6-66.41c-9.36-8.81-14.33-21.33-13.54-34.16L47.91,203.1c.51-8.4,7.47-14.94,15.88-14.94h112.24c8.41,0,15.37,6.55,15.88,14.94l41.79,578.28c.78,12.83-4.18,25.35-13.54,34.16l-70.6,66.41c-16.66,15.67-42.64,15.67-59.3,0Z" fill="#3f4fff"/>
</svg>